<svg id="cloudy" enable-background="new 0 0 300 300" height="512" viewBox="0 0 300 300" width="512" xmlns="http://www.w3.org/2000/svg"><g><path d="m251.577 138.411c-2.904-28.207-26.318-50.413-54.648-51.718-5.312-.238-10.582.244-15.754 1.447-13.539-18.925-35.21-30.14-58.542-30.14-30.199 0-57.406 19.066-67.699 47.439-1.363 3.748-2.418 7.773-3.148 11.998-18.703 6.154-31.059 24.359-29.68 44.277.488 7.04 2.82 13.853 6.665 19.824-4.93 8.321-7.338 18.009-6.654 27.877 1.734 25 23.359 44.584 49.234 44.584h142.649c17.656 0 34.094-7.033 46.289-19.805 12.191-12.764 18.453-29.531 17.641-47.213-.913-19.819-11.162-37.424-26.353-48.57zm-221.487 22.751c-1.18-16.98 9.871-32.432 26.273-36.738 1.562-.41 2.723-1.719 2.945-3.318.641-4.609 1.699-8.961 3.145-12.936 9.148-25.223 33.332-42.17 60.18-42.17 21.59 0 41.586 10.809 53.488 28.912.961 1.461 2.762 2.127 4.441 1.648 5.227-1.492 10.617-2.131 16-1.875 22.211 1.023 40.877 16.985 45.94 38.168-7.768-3.926-16.382-6.366-25.487-6.785-6.076-.287-12.032.328-17.774 1.677-15.013-21.144-39.279-33.745-65.241-33.745-33.555 0-63.785 21.184-75.227 52.715-1.612 4.446-2.801 9.059-3.595 13.714-7.127 2.315-13.713 6.223-19.124 11.632-.771.771-1.46 1.605-2.173 2.421-2.157-4.143-3.473-8.673-3.791-13.32zm224.414 67.508c-10.672 11.176-25.055 17.33-40.504 17.33h-142.649c-21.688 0-39.809-16.312-41.25-37.139-.809-11.605 3.426-22.957 11.613-31.145 8.188-8.189 19.586-12.424 31.148-11.617 5.137.355 10.07 1.717 14.668 4.047 1.977.988 4.379.209 5.375-1.76 1-1.971.211-4.379-1.758-5.377-5.559-2.816-11.523-4.461-17.73-4.891-3.25-.224-6.48-.088-9.657.331.671-3.049 1.47-6.074 2.536-9.009 10.294-28.374 37.501-47.44 67.704-47.44 22.463 0 43.53 10.475 57.132 28.196-7.828 2.995-15.068 7.533-21.331 13.515-12.77 12.197-19.801 28.637-19.801 46.289 0 2.209 1.789 4 4 4s4-1.791 4-4c0-15.447 6.152-29.83 17.328-40.504 11.168-10.666 25.797-16.158 41.32-15.436 28.566 1.314 51.973 24.723 53.289 53.289.715 15.479-4.765 30.153-15.433 41.321z"/><path d="m255.871 166.512c-6.66-11.842-18.047-20.346-31.238-23.33-2.156-.482-4.297.863-4.785 3.02-.488 2.154.867 4.297 3.02 4.785 10.992 2.484 20.477 9.572 26.027 19.447.734 1.305 2.094 2.039 3.492 2.039.664 0 1.336-.164 1.957-.514 1.925-1.082 2.609-3.521 1.527-5.447z"/><path d="m60.078 171.385c-10.559 3.021-19.328 10.91-23.457 21.104-.828 2.047.156 4.379 2.203 5.209.492.199 1.004.295 1.504.295 1.578 0 3.078-.945 3.707-2.5 3.215-7.93 10.035-14.066 18.246-16.416 2.121-.607 3.352-2.822 2.742-4.947-.605-2.128-2.84-3.345-4.945-2.745z"/><path d="m238 82c8.824 0 16-7.178 16-16s-7.176-16-16-16-16 7.178-16 16 7.175 16 16 16zm0-24c4.41 0 8 3.588 8 8s-3.59 8-8 8-8-3.588-8-8 3.59-8 8-8z"/><path d="m51.172 68.828c.781.781 1.804 1.172 2.828 1.172s2.047-.391 2.828-1.172l5.172-5.172 5.172 5.172c.781.781 1.804 1.172 2.828 1.172s2.047-.391 2.828-1.172c1.562-1.562 1.562-4.094 0-5.656l-5.172-5.172 5.172-5.172c1.562-1.562 1.562-4.094 0-5.656s-4.094-1.562-5.656 0l-5.172 5.172-5.172-5.172c-1.562-1.562-4.094-1.562-5.656 0s-1.562 4.094 0 5.656l5.171 5.172-5.172 5.172c-1.562 1.562-1.562 4.094.001 5.656z"/><path d="m224.828 211.172c-1.562-1.562-4.094-1.562-5.656 0l-5.172 5.172-5.172-5.172c-1.562-1.562-4.094-1.562-5.656 0s-1.562 4.094 0 5.656l5.172 5.172-5.172 5.172c-1.562 1.562-1.562 4.094 0 5.656.781.781 1.805 1.172 2.828 1.172s2.047-.391 2.828-1.172l5.172-5.172 5.172 5.172c.781.781 1.805 1.172 2.828 1.172s2.047-.391 2.828-1.172c1.562-1.562 1.562-4.094 0-5.656l-5.172-5.172 5.172-5.172c1.562-1.562 1.562-4.094 0-5.656z"/></g></svg>