<svg id="rain" enable-background="new 0 0 300 300" height="512" viewBox="0 0 300 300" width="512" xmlns="http://www.w3.org/2000/svg"><g><path d="m217.015 58.067c-6.07-.278-12.026.339-17.769 1.688-15.013-21.153-39.273-33.756-65.246-33.756-33.555 0-63.785 21.184-75.227 52.715-1.608 4.439-2.812 9.057-3.608 13.722-7.123 2.315-13.704 6.219-19.111 11.624-9.824 9.824-14.902 23.439-13.938 37.355 1.734 25 23.359 44.584 49.234 44.584h142.65c17.656 0 34.094-7.033 46.289-19.805 12.191-12.764 18.453-29.531 17.641-47.213-1.505-32.654-28.259-59.41-60.915-60.914zm37.488 102.602c-10.672 11.176-25.055 17.33-40.504 17.33h-142.648c-21.688 0-39.809-16.312-41.25-37.139-.809-11.605 3.426-22.957 11.613-31.145 8.188-8.189 19.602-12.424 31.148-11.617 5.137.355 10.07 1.717 14.668 4.047 1.973.99 4.379.209 5.375-1.76 1-1.971.211-4.379-1.758-5.377-5.559-2.816-11.523-4.461-17.73-4.891-3.251-.222-6.483-.085-9.66.336.674-3.054 1.476-6.082 2.539-9.013 10.293-28.375 37.5-47.441 67.703-47.441 22.476 0 43.537 10.475 57.141 28.204-7.831 2.991-15.077 7.525-21.34 13.507-12.769 12.197-19.8 28.637-19.8 46.289 0 2.209 1.789 4 4 4s4-1.791 4-4c0-15.447 6.152-29.83 17.328-40.504 11.164-10.666 25.82-16.168 41.32-15.436 28.566 1.314 51.973 24.723 53.289 53.289.715 15.479-4.766 30.153-15.434 41.321z"/><path d="m255.871 98.511c-6.66-11.842-18.047-20.346-31.238-23.33-2.156-.482-4.297.863-4.785 3.02-.488 2.154.867 4.297 3.02 4.785 10.992 2.484 20.477 9.572 26.027 19.447.734 1.305 2.094 2.039 3.492 2.039.664 0 1.336-.164 1.957-.514 1.925-1.082 2.609-3.521 1.527-5.447z"/><path d="m60.078 103.384c-10.559 3.021-19.328 10.91-23.457 21.104-.828 2.047.156 4.379 2.203 5.209.492.199 1.004.295 1.504.295 1.578 0 3.078-.945 3.707-2.5 3.215-7.93 10.035-14.066 18.246-16.416 2.121-.607 3.352-2.822 2.742-4.947-.605-2.126-2.836-3.351-4.945-2.745z"/><path d="m82.433 207.536c.344.092.684.135 1.023.135 1.77 0 3.391-1.188 3.863-2.982l2.547-9.67c.562-2.137-.711-4.324-2.848-4.887-2.133-.568-4.324.709-4.887 2.848l-2.547 9.67c-.561 2.136.712 4.324 2.849 4.886z"/><path d="m79.886 217.233c-2.137-.551-4.324.715-4.887 2.852l-5.734 21.793c-.562 2.137.715 4.324 2.848 4.887.344.09.684.131 1.023.131 1.773 0 3.391-1.188 3.863-2.982l5.734-21.793c.563-2.138-.714-4.325-2.847-4.888z"/><path d="m69.566 256.462c-2.125-.562-4.32.709-4.887 2.848l-2.547 9.67c-.562 2.137.711 4.324 2.848 4.887.344.092.684.135 1.023.135 1.77 0 3.391-1.188 3.863-2.982l2.547-9.67c.563-2.138-.71-4.326-2.847-4.888z"/><path d="m118.433 207.536c.344.092.684.135 1.023.135 1.77 0 3.391-1.188 3.863-2.982l2.547-9.67c.562-2.137-.711-4.324-2.848-4.887-2.129-.568-4.32.709-4.887 2.848l-2.547 9.67c-.561 2.136.712 4.324 2.849 4.886z"/><path d="m115.886 217.233c-2.125-.551-4.324.715-4.887 2.852l-5.734 21.793c-.562 2.137.715 4.324 2.848 4.887.344.09.684.131 1.023.131 1.773 0 3.391-1.188 3.863-2.982l5.734-21.793c.563-2.138-.714-4.325-2.847-4.888z"/><path d="m105.566 256.462c-2.133-.562-4.324.709-4.887 2.848l-2.547 9.67c-.562 2.137.711 4.324 2.848 4.887.344.092.684.135 1.023.135 1.77 0 3.391-1.188 3.863-2.982l2.547-9.67c.563-2.138-.71-4.326-2.847-4.888z"/><path d="m154.433 207.536c.344.092.684.135 1.023.135 1.77 0 3.391-1.188 3.863-2.982l2.547-9.67c.562-2.137-.711-4.324-2.848-4.887-2.137-.568-4.324.709-4.887 2.848l-2.547 9.67c-.561 2.136.712 4.324 2.849 4.886z"/><path d="m151.886 217.233c-2.125-.551-4.324.715-4.887 2.852l-5.734 21.793c-.562 2.137.715 4.324 2.848 4.887.344.09.684.131 1.023.131 1.773 0 3.391-1.188 3.863-2.982l5.734-21.793c.563-2.138-.714-4.325-2.847-4.888z"/><path d="m141.566 256.462c-2.129-.562-4.32.709-4.887 2.848l-2.547 9.67c-.562 2.137.711 4.324 2.848 4.887.344.092.684.135 1.023.135 1.77 0 3.391-1.188 3.863-2.982l2.547-9.67c.563-2.138-.71-4.326-2.847-4.888z"/><path d="m190.433 207.536c.344.092.684.135 1.023.135 1.77 0 3.391-1.188 3.863-2.982l2.547-9.67c.562-2.137-.711-4.324-2.848-4.887-2.129-.568-4.324.709-4.887 2.848l-2.547 9.67c-.561 2.136.712 4.324 2.849 4.886z"/><path d="m187.886 217.233c-2.129-.551-4.324.715-4.887 2.852l-5.734 21.793c-.562 2.137.715 4.324 2.848 4.887.344.09.684.131 1.023.131 1.773 0 3.391-1.188 3.863-2.982l5.734-21.793c.563-2.138-.714-4.325-2.847-4.888z"/><path d="m177.566 256.462c-2.133-.562-4.324.709-4.887 2.848l-2.547 9.67c-.562 2.137.711 4.324 2.848 4.887.344.092.684.135 1.023.135 1.77 0 3.391-1.188 3.863-2.982l2.547-9.67c.563-2.138-.71-4.326-2.847-4.888z"/><path d="m98.433 207.536c.344.092.684.135 1.023.135 1.77 0 3.391-1.188 3.863-2.982l2.547-9.67c.562-2.137-.711-4.324-2.848-4.887-2.133-.568-4.324.709-4.887 2.848l-2.547 9.67c-.561 2.136.712 4.324 2.849 4.886z"/><path d="m95.886 217.233c-2.129-.551-4.324.715-4.887 2.852l-5.734 21.793c-.562 2.137.715 4.324 2.848 4.887.344.09.684.131 1.023.131 1.773 0 3.391-1.188 3.863-2.982l5.734-21.793c.563-2.138-.714-4.325-2.847-4.888z"/><path d="m85.566 256.462c-2.137-.562-4.324.709-4.887 2.848l-2.547 9.67c-.562 2.137.711 4.324 2.848 4.887.344.092.684.135 1.023.135 1.77 0 3.391-1.188 3.863-2.982l2.547-9.67c.563-2.138-.71-4.326-2.847-4.888z"/><path d="m134.433 207.536c.344.092.684.135 1.023.135 1.77 0 3.391-1.188 3.863-2.982l2.547-9.67c.562-2.137-.711-4.324-2.848-4.887-2.125-.568-4.32.709-4.887 2.848l-2.547 9.67c-.561 2.136.712 4.324 2.849 4.886z"/><path d="m131.886 217.233c-2.129-.551-4.32.715-4.887 2.852l-5.734 21.793c-.562 2.137.715 4.324 2.848 4.887.344.09.684.131 1.023.131 1.773 0 3.391-1.188 3.863-2.982l5.734-21.793c.563-2.138-.714-4.325-2.847-4.888z"/><path d="m121.566 256.462c-2.129-.562-4.32.709-4.887 2.848l-2.547 9.67c-.562 2.137.711 4.324 2.848 4.887.344.092.684.135 1.023.135 1.77 0 3.391-1.188 3.863-2.982l2.547-9.67c.563-2.138-.71-4.326-2.847-4.888z"/><path d="m170.433 207.536c.344.092.684.135 1.023.135 1.77 0 3.391-1.188 3.863-2.982l2.547-9.67c.562-2.137-.711-4.324-2.848-4.887-2.133-.568-4.324.709-4.887 2.848l-2.547 9.67c-.561 2.136.712 4.324 2.849 4.886z"/><path d="m167.886 217.233c-2.133-.551-4.32.715-4.887 2.852l-5.734 21.793c-.562 2.137.715 4.324 2.848 4.887.344.09.684.131 1.023.131 1.773 0 3.391-1.188 3.863-2.982l5.734-21.793c.563-2.138-.714-4.325-2.847-4.888z"/><path d="m157.566 256.462c-2.125-.562-4.32.709-4.887 2.848l-2.547 9.67c-.562 2.137.711 4.324 2.848 4.887.344.092.684.135 1.023.135 1.77 0 3.391-1.188 3.863-2.982l2.547-9.67c.563-2.138-.71-4.326-2.847-4.888z"/><path d="m211.019 190.132c-2.129-.568-4.324.709-4.887 2.848l-2.547 9.67c-.562 2.137.711 4.324 2.848 4.887.344.092.684.135 1.023.135 1.77 0 3.391-1.188 3.863-2.982l2.547-9.67c.563-2.138-.71-4.326-2.847-4.888z"/><path d="m203.886 217.233c-2.133-.551-4.32.715-4.887 2.852l-5.734 21.793c-.562 2.137.715 4.324 2.848 4.887.344.09.684.131 1.023.131 1.773 0 3.391-1.188 3.863-2.982l5.734-21.793c.563-2.138-.714-4.325-2.847-4.888z"/><path d="m193.566 256.462c-2.133-.562-4.324.709-4.887 2.848l-2.547 9.67c-.562 2.137.711 4.324 2.848 4.887.344.092.684.135 1.023.135 1.77 0 3.391-1.188 3.863-2.982l2.547-9.67c.563-2.138-.71-4.326-2.847-4.888z"/></g></svg>