<svg id="sun" enable-background="new 0 0 300 300" height="512" viewBox="0 0 300 300" width="512" xmlns="http://www.w3.org/2000/svg"><g><path d="m150 50c2.211 0 4-1.791 4-4v-12c0-2.209-1.789-4-4-4s-4 1.791-4 4v12c0 2.209 1.789 4 4 4z"/><path d="m150 250c-2.211 0-4 1.791-4 4v12c0 2.209 1.789 4 4 4s4-1.791 4-4v-12c0-2.209-1.789-4-4-4z"/><path d="m34 146c-2.211 0-4 1.791-4 4s1.789 4 4 4h12c2.211 0 4-1.791 4-4s-1.789-4-4-4z"/><path d="m254 146c-2.211 0-4 1.791-4 4s1.789 4 4 4h12c2.211 0 4-1.791 4-4s-1.789-4-4-4z"/><path d="m223.539 80.461c1.023 0 2.047-.391 2.828-1.172l8.484-8.484c1.562-1.562 1.562-4.094 0-5.656s-4.094-1.562-5.656 0l-8.484 8.484c-1.562 1.562-1.562 4.094 0 5.656.781.782 1.805 1.172 2.828 1.172z"/><path d="m73.633 220.711-8.484 8.484c-1.562 1.562-1.562 4.094 0 5.656.781.781 1.805 1.172 2.828 1.172s2.047-.391 2.828-1.172l8.484-8.484c1.562-1.562 1.562-4.094 0-5.656s-4.094-1.562-5.656 0z"/><path d="m73.633 79.289c.781.781 1.805 1.172 2.828 1.172s2.047-.391 2.828-1.172c1.562-1.562 1.562-4.094 0-5.656l-8.484-8.484c-1.562-1.562-4.094-1.562-5.656 0s-1.562 4.094 0 5.656z"/><path d="m226.367 220.711c-1.562-1.562-4.094-1.562-5.656 0s-1.562 4.094 0 5.656l8.484 8.484c.781.781 1.805 1.172 2.828 1.172s2.047-.391 2.828-1.172c1.562-1.562 1.562-4.094 0-5.656z"/><path d="m103.898 56.692c.664 1.486 2.125 2.369 3.656 2.369.543 0 1.098-.113 1.629-.35 2.016-.902 2.922-3.268 2.02-5.285l-11.43-25.562c-.898-2.014-3.258-2.922-5.285-2.02-2.016.902-2.922 3.268-2.02 5.285z"/><path d="m196.102 243.309c-.898-2.014-3.254-2.926-5.285-2.02-2.016.902-2.922 3.268-2.02 5.285l11.43 25.562c.664 1.486 2.125 2.369 3.656 2.369.543 0 1.098-.113 1.629-.35 2.016-.902 2.922-3.268 2.02-5.285z"/><path d="m185.043 56.342c.461.174.938.256 1.402.256 1.621 0 3.145-.992 3.746-2.6l9.812-26.225c.773-2.07-.273-4.375-2.344-5.148-2.066-.779-4.371.277-5.148 2.344l-9.812 26.225c-.773 2.07.274 4.375 2.344 5.148z"/><path d="m114.957 243.659c-2.066-.773-4.371.275-5.148 2.344l-9.812 26.225c-.773 2.07.273 4.375 2.344 5.148.461.174.938.256 1.402.256 1.621 0 3.145-.992 3.746-2.6l9.812-26.225c.773-2.07-.274-4.375-2.344-5.148z"/><path d="m244.449 110.459c.559 0 1.129-.117 1.672-.367l25.43-11.723c2.004-.926 2.883-3.301 1.957-5.307-.926-2.004-3.293-2.889-5.309-1.959l-25.43 11.723c-2.004.926-2.883 3.301-1.957 5.307.676 1.465 2.122 2.326 3.637 2.326z"/><path d="m53.879 189.909-25.43 11.723c-2.004.926-2.883 3.301-1.957 5.307.676 1.465 2.121 2.326 3.637 2.326.559 0 1.129-.117 1.672-.367l25.43-11.723c2.004-.926 2.883-3.301 1.957-5.307s-3.293-2.885-5.309-1.959z"/><path d="m27.992 99.461 25.535 11.494c.531.238 1.09.354 1.637.354 1.527 0 2.984-.879 3.652-2.359.906-2.016.008-4.383-2.008-5.291l-25.535-11.495c-2.012-.9-4.383-.002-5.289 2.006-.906 2.016-.007 4.383 2.008 5.291z"/><path d="m272.008 200.539-25.535-11.494c-2.012-.9-4.379-.006-5.289 2.006-.906 2.016-.008 4.383 2.008 5.291l25.535 11.494c.531.238 1.09.354 1.637.354 1.527 0 2.984-.879 3.652-2.359.906-2.016.007-4.383-2.008-5.292z"/><path d="m150 54c-52.934 0-96 43.066-96 96s43.066 96 96 96 96-43.066 96-96-43.066-96-96-96zm0 184c-48.523 0-88-39.477-88-88s39.477-88 88-88 88 39.477 88 88-39.477 88-88 88z"/><path d="m81.371 179.37c-.859-2.035-3.207-2.994-5.238-2.131-2.035.859-2.988 3.205-2.129 5.24 5.789 13.723 15.137 25.699 27.031 34.635.719.539 1.562.801 2.398.801 1.215 0 2.418-.551 3.203-1.598 1.324-1.766.969-4.273-.797-5.602-10.765-8.086-19.226-18.926-24.468-31.345z"/></g></svg>